<?xml version="1.0" encoding="UTF-8" standalone="no"?>
<svg xmlns:dc="http://purl.org/dc/elements/1.1/" xmlns:cc="http://creativecommons.org/ns#" xmlns:rdf="http://www.w3.org/1999/02/22-rdf-syntax-ns#" xmlns:svg="http://www.w3.org/2000/svg" xmlns="http://www.w3.org/2000/svg" xmlns:sodipodi="http://sodipodi.sourceforge.net/DTD/sodipodi-0.dtd" xmlns:inkscape="http://www.inkscape.org/namespaces/inkscape" height="512" version="1.1" width="512" id="svg3159" inkscape:version="0.48.3.1 r9886" sodipodi:docname="0003-mesh-elaboratehh.svg" inkscape:export-filename="/home/olm/neutrinet/0003-mesh-elaboratehh2.png" inkscape:export-xdpi="92.274361" inkscape:export-ydpi="92.274361">
  <metadata id="metadata3293">
    <rdf:RDF>
      <cc:Work rdf:about="">
        <dc:format>image/svg+xml</dc:format>
        <dc:type rdf:resource="http://purl.org/dc/dcmitype/StillImage"/>
        <dc:title/>
      </cc:Work>
    </rdf:RDF>
  </metadata>
  <defs id="defs3291"/>
  <sodipodi:namedview pagecolor="#ffffff" bordercolor="#666666" borderopacity="1" objecttolerance="10" gridtolerance="10" guidetolerance="10" inkscape:pageopacity="0" inkscape:pageshadow="2" inkscape:window-width="1280" inkscape:window-height="741" id="namedview3289" showgrid="false" inkscape:zoom="0.6225" inkscape:cx="109.80017" inkscape:cy="257.54623" inkscape:window-x="0" inkscape:window-y="27" inkscape:window-maximized="1" inkscape:current-layer="layer2" inkscape:object-paths="true" inkscape:snap-nodes="false"/>
  <g id="LineSet" inkscape:label="LineSet" style="display:inline">
    <g id="strokes" inkscape:groupmode="layer" inkscape:label="strokes" style="display:none">
      <path d="m 193.682,252.239 -0.239,0.596 0.239,-0.596" id="path3165" inkscape:connector-curvature="0" style="fill:none;stroke:#000000;stroke-width:3;stroke-linecap:butt;stroke-linejoin:round;stroke-opacity:1"/>
      <path d="m 206.37,368.619 0.605,2.69" id="path3167" inkscape:connector-curvature="0" style="fill:none;stroke:#000000;stroke-width:3;stroke-linecap:butt;stroke-linejoin:round;stroke-opacity:1"/>
      <path d="m 312.392,369.979 -5.332,-8.459 -5.333,-8.46 -5.332,-8.459 -5.333,-8.46 -5.333,-8.459 -5.332,-8.46 -5.333,-8.46 -5.332,-8.459 -5.333,-8.46 -5.332,-8.459 -5.333,-8.46 -5.333,-8.459 -5.332,-8.46 -5.333,-8.459 -5.332,-8.46 -5.333,-8.459 -3.421,-5.427 9.845,1.757 9.844,1.756 9.845,1.757 9.844,1.756 9.845,1.757 9.844,1.756 9.845,1.757 9.844,1.756 4.272,0.763 0.453,9.989 0.453,9.99 0.453,9.99 0.454,9.99 0.453,9.989 0.453,9.99 0.453,9.99 0.453,9.989 0.454,9.99 0.453,9.99 0.453,9.99 0.453,9.989 0.276,6.088" id="path3181" inkscape:connector-curvature="0" style="fill:none;stroke:#000000;stroke-width:3;stroke-linecap:butt;stroke-linejoin:round;stroke-opacity:1"/>
      <path d="m 223.65,229.2 -0.964,-0.77" id="path3183" inkscape:connector-curvature="0" style="fill:none;stroke:#000000;stroke-width:3;stroke-linecap:butt;stroke-linejoin:round;stroke-opacity:1"/>
      <path d="m 306.952,243.466 -9.845,-1.757 -9.844,-1.756 -9.845,-1.757 -9.844,-1.756 -9.845,-1.757 -9.844,-1.756 -9.845,-1.757 -9.844,-1.757 -5.51,-0.983" id="path3185" inkscape:connector-curvature="0" style="fill:none;stroke:#000000;stroke-width:3;stroke-linecap:butt;stroke-linejoin:round;stroke-opacity:1"/>
      <path d="m 307.353,245.731 -0.401,-2.265" id="path3189" inkscape:connector-curvature="0" style="fill:none;stroke:#000000;stroke-width:3;stroke-linecap:butt;stroke-linejoin:round;stroke-opacity:1"/>
      <path d="m 312.752,371.309 0.271,-0.595" id="path3191" inkscape:connector-curvature="0" style="fill:none;stroke:#000000;stroke-width:3;stroke-linecap:butt;stroke-linejoin:round;stroke-opacity:1"/>
      <path d="m 206.975,371.309 -10,0 -10,0 -10,0 -10,0 -10,0 -5.517,0" id="path3201" inkscape:connector-curvature="0" style="fill:none;stroke:#000000;stroke-width:3;stroke-linecap:butt;stroke-linejoin:round;stroke-opacity:1"/>
      <path d="m 151.824,370.714 -0.366,0.595 z" id="path3203" inkscape:connector-curvature="0" style="fill:none;stroke:#000000;stroke-width:3;stroke-linecap:butt;stroke-linejoin:round;stroke-opacity:1" sodipodi:nodetypes="ccc"/>
      <path d="m 145.469,193.611 -0.644,-0.907" id="path3209" inkscape:connector-curvature="0" style="fill:none;stroke:#000000;stroke-width:3;stroke-linecap:butt;stroke-linejoin:round;stroke-opacity:1"/>
      <path d="m 222.807,227.854 -0.121,0.576 -1.41,-0.036" id="path3215" inkscape:connector-curvature="0" style="fill:none;stroke:#000000;stroke-width:3;stroke-linecap:butt;stroke-linejoin:round;stroke-opacity:1"/>
      <path d="m 144.825,192.704 9.089,4.171 9.089,4.17 9.089,4.17 9.089,4.171 9.088,4.17 9.089,4.171 9.089,4.17 9.089,4.17 5.15,2.363" id="path3217" inkscape:connector-curvature="0" style="fill:none;stroke:#000000;stroke-width:3;stroke-linecap:butt;stroke-linejoin:round;stroke-opacity:1"/>
      <path d="m 221.574,227.309 -9.089,-4.17 -9.089,-4.171 -9.089,-4.17 -9.089,-4.17 -9.089,-4.171 -9.089,-4.17 -9.088,-4.17 -9.089,-4.171 -3.62,-1.661 2.162,-9.763 2.162,-9.764 2.162,-9.763 2.161,-9.764 2.162,-9.763 2.162,-9.764 2.162,-9.763 0.233,-1.056 5.042,8.636 5.042,8.636 5.042,8.636 5.042,8.636 5.041,8.636 5.042,8.636 5.042,8.636 5.042,8.636 5.042,8.636 5.042,8.636 5.041,8.636 5.505,9.428" id="path3219" inkscape:connector-curvature="0" style="fill:none;stroke:#000000;stroke-width:3;stroke-linecap:butt;stroke-linejoin:round;stroke-opacity:1"/>
      <path d="m 160.499,121.913 5.042,8.636 5.042,8.636 5.042,8.635 5.041,8.636 5.042,8.636 5.042,8.636 5.042,8.636 5.042,8.636 5.042,8.636 5.041,8.636 5.042,8.636 5.042,8.636 1.685,2.886" id="path3223" inkscape:connector-curvature="0" style="fill:none;stroke:#000000;stroke-width:3;stroke-linecap:butt;stroke-linejoin:round;stroke-opacity:1"/>
      <path d="m 160.499,121.913 0.11,0.972" id="path3225" inkscape:connector-curvature="0" style="fill:none;stroke:#000000;stroke-width:3;stroke-linecap:butt;stroke-linejoin:round;stroke-opacity:1"/>
      <path d="m 306.952,243.466 0.71,1.048 -0.71,-1.048" id="path3229" inkscape:connector-curvature="0" style="fill:none;stroke:#000000;stroke-width:3;stroke-linecap:butt;stroke-linejoin:round;stroke-opacity:1"/>
      <path d="m 222.807,227.854 -0.121,0.576" id="path3237" inkscape:connector-curvature="0" style="fill:none;stroke:#000000;stroke-width:3;stroke-linecap:butt;stroke-linejoin:round;stroke-opacity:1"/>
      <path d="m 160.499,121.913 1.618,1.987 -1.618,-1.987 5.042,8.636 5.042,8.636 5.042,8.635 5.041,8.636 5.042,8.636 5.042,8.636 5.042,8.636 5.042,8.636 5.042,8.636 5.041,8.636 5.042,8.636 5.042,8.636 1.685,2.886" id="path3239" inkscape:connector-curvature="0" style="fill:none;stroke:#000000;stroke-width:3;stroke-linecap:butt;stroke-linejoin:round;stroke-opacity:1"/>
      <path d="m 160.499,121.913 7.695,6.386 7.695,6.387 7.695,6.386 7.695,6.387 7.694,6.387 7.695,6.386 7.695,6.387 7.695,6.387 7.695,6.386 7.695,6.387 7.695,6.386 7.695,6.387 7.694,6.387 7.695,6.386 7.695,6.387 7.695,6.386 7.695,6.387 7.695,6.387 7.945,6.594" id="path3241" inkscape:connector-curvature="0" style="fill:none;stroke:#000000;stroke-width:3;stroke-linecap:butt;stroke-linejoin:round;stroke-opacity:1"/>
      <path d="m 307.236,243.015 -0.284,0.451" id="path3245" inkscape:connector-curvature="0" style="fill:none;stroke:#000000;stroke-width:3;stroke-linecap:butt;stroke-linejoin:round;stroke-opacity:1"/>
      <path d="m 303.618,133.169 0.376,2.582" id="path3247" inkscape:connector-curvature="0" style="fill:none;stroke:#000000;stroke-width:3;stroke-linecap:butt;stroke-linejoin:round;stroke-opacity:1"/>
      <path d="m 222.686,228.43 -3.009,1.827" id="path3255" inkscape:connector-curvature="0" style="fill:none;stroke:#000000;stroke-width:3;stroke-linecap:butt;stroke-linejoin:round;stroke-opacity:1"/>
      <path d="m 222.686,228.43 -1.112,-1.121" id="path3257" inkscape:connector-curvature="0" style="fill:none;stroke:#000000;stroke-width:3;stroke-linecap:butt;stroke-linejoin:round;stroke-opacity:1"/>
      <path d="m 303.618,133.169 0.506,0.596" id="path3259" inkscape:connector-curvature="0" style="fill:none;stroke:#000000;stroke-width:3;stroke-linecap:butt;stroke-linejoin:round;stroke-opacity:1"/>
      <path d="m 306.952,243.466 -0.274,0.549" id="path3261" inkscape:connector-curvature="0" style="fill:none;stroke:#000000;stroke-width:3;stroke-linecap:butt;stroke-linejoin:round;stroke-opacity:1"/>
      <path d="m 306.952,243.466 -1.907,-0.938" id="path3263" inkscape:connector-curvature="0" style="fill:none;stroke:#000000;stroke-width:3;stroke-linecap:butt;stroke-linejoin:round;stroke-opacity:1"/>
      <path d="m 312.752,371.309 -0.36,-1.33" id="path3269" inkscape:connector-curvature="0" style="fill:none;stroke:#000000;stroke-width:3;stroke-linecap:butt;stroke-linejoin:round;stroke-opacity:1"/>
      <path d="m 303.618,133.169 10,0 10,0 10,0 10,0 10,0 1.364,0" id="path3283" inkscape:connector-curvature="0" style="fill:none;stroke:#000000;stroke-width:3;stroke-linecap:butt;stroke-linejoin:round;stroke-opacity:1"/>
      <path d="m 354.982,133.169 -0.376,0.596" id="path3285" inkscape:connector-curvature="0" style="fill:none;stroke:#000000;stroke-width:3;stroke-linecap:butt;stroke-linejoin:round;stroke-opacity:1"/>
    </g>
    <g inkscape:groupmode="layer" id="layer4" inkscape:label="Calque#3" style="display:none">
      <path style="fill:none;stroke:#000000;stroke-width:3;stroke-linecap:butt;stroke-linejoin:round;stroke-opacity:1;display:inline" d="m 193.682,252.239 -51.45313,0.72345 0.13724,-0.64631 0.004,-0.0177 m 170.38213,119.01055 47.47408,-0.47114 m -5.24408,-237.66886 -51.364,0 m 63.31183,93.56742 -59.97783,16.72958 53.27408,127.37186 m -56.60808,-237.66886 63.19405,93.27358 M 312.752,371.309 l -5.8,-127.843 m 0,0 -146.453,-121.553 m 0,0 -15.674,70.791 -2.59591,60.25845 64.74636,118.34655 -55.151,-0.595 -9.44113,-116.31155 64.01013,116.31155 M 303.618,133.169 306.952,243.466 M 222.807,227.854 162.117,123.9 305.045,242.528 z m -77.564,-35.569 71.72649,33.52206 5.71651,2.62294 90.066,142.879 M 142.36987,252.29845 145.469,193.611 l 75.807,34.783 z m 217.85621,118.53941 6.58697,-146.39012 -11.8306,-91.27874 m -203.25992,237.5678 55.25292,0.57218 -13.293,-119.07 29.004,-23.809" id="path3213" inkscape:connector-curvature="0" sodipodi:nodetypes="ccccccccccccccccccccccccccccccccccccccccccccc"/>
    </g>
    <g inkscape:groupmode="layer" id="layer5" inkscape:label="Calque#4">
      <path id="path5210" style="fill:none;stroke:#000000;stroke-width:3.5;stroke-linecap:butt;stroke-linejoin:miter;stroke-miterlimit:4;stroke-opacity:1;stroke-dasharray:none" d="m 209.08754,257.02209 9.71284,-38.82219 m -11.27037,153.8786 1.55753,-115.05641 -62.13449,-8.75152 60.57696,123.80793 -55.92471,-0.58545 -4.70855,-124.71378 71.7498,-28.18596 -72.72842,-26.41387 12.37918,-61.77751 60.50307,87.79797 91.69208,152.54602 51.30455,0 5.99664,-146.58443 -14.14689,-91.00613 -51.34251,-0.26851 m 65.48586,91.3612 -60.4709,19.80638 54.48123,126.60765 -51.30798,0.0838 -3.0298,-126.35987 -88.42581,-25.79274 -71.97973,28.21241 -1.13899,-54.62624 12.44164,-62.0892 149.13825,114.37751 -5.19622,-111.62883" inkscape:connector-curvature="0" sodipodi:nodetypes="cccccccccccccccccccccccccccc"/>
      <path style="fill:none;stroke:#000000;stroke-width:3.50000000000000000;stroke-linecap:butt;stroke-linejoin:miter;stroke-opacity:1;color:#000000;stroke-miterlimit:4;stroke-dasharray:none;stroke-dashoffset:0;marker:none;visibility:visible;display:inline;overflow:visible;enable-background:accumulate" d="M 308.85326,243.55198 353.65511,133.20906" id="path3072" inkscape:connector-curvature="0"/>
      <path style="color:#000000;fill:none;stroke:#000000;stroke-width:3.5;stroke-linecap:butt;stroke-linejoin:miter;stroke-miterlimit:4;stroke-opacity:1;stroke-dasharray:none;stroke-dashoffset:0;marker:none;visibility:visible;display:inline;overflow:visible;enable-background:accumulate" d="M 152.99469,371.50759 209.73503,254.43408 158.35977,130.09024" id="path3091" inkscape:connector-curvature="0" sodipodi:nodetypes="ccc"/>
      <path style="color:#000000;fill:none;stroke:#000000;stroke-width:3.5;stroke-linecap:butt;stroke-linejoin:miter;stroke-miterlimit:4;stroke-opacity:1;stroke-dasharray:none;stroke-dashoffset:0;marker:none;visibility:visible;display:inline;overflow:visible;enable-background:accumulate" d="m 305.00575,132.90098 60.64946,92.04633 -55.62641,145.0352 -39.88773,-65.67553 91.68721,65.67461" id="path3099" inkscape:connector-curvature="0" sodipodi:nodetypes="ccccc"/>
      <path style="fill:none;stroke:#000000;stroke-width:3.50000000000000000;stroke-linecap:butt;stroke-linejoin:miter;stroke-opacity:1;color:#000000;stroke-miterlimit:4;stroke-dasharray:none;stroke-dashoffset:0;marker:none;visibility:visible;display:inline;overflow:visible;enable-background:accumulate" d="M 146.90522,247.00358 222.73864,141.47605" id="path4249" inkscape:connector-curvature="0"/>
      <path style="fill:none;stroke:#000000;stroke-width:3.50000000000000000;stroke-linecap:butt;stroke-linejoin:miter;stroke-opacity:1;color:#000000;stroke-miterlimit:4;stroke-dasharray:none;stroke-dashoffset:0;marker:none;visibility:visible;display:inline;overflow:visible;enable-background:accumulate" d="m 273.1679,309.29068 94.60611,-85.25555" id="path4257" inkscape:connector-curvature="0"/>
    </g>
  </g>
  <g inkscape:groupmode="layer" id="layer1" inkscape:label="Calque" style="display:inline">
    <path transform="translate(124.67715,-363.89324)" sodipodi:type="arc" style="fill:#000000;fill-opacity:1;stroke:none" id="path7147-33-0" sodipodi:cx="33.333332" sodipodi:cy="494.29767" sodipodi:rx="6.4516129" sodipodi:ry="6.4516129" d="m 39.784945,494.29767 a 6.4516129,6.4516129 0 1 1 -12.903226,0 6.4516129,6.4516129 0 1 1 12.903226,0 z"/>
    <path transform="translate(112.81482,-300.81619)" sodipodi:type="arc" style="fill:#000000;fill-opacity:1;stroke:none" id="path7147-33-1" sodipodi:cx="33.333332" sodipodi:cy="494.29767" sodipodi:rx="6.4516129" sodipodi:ry="6.4516129" d="m 39.784945,494.29767 a 6.4516129,6.4516129 0 1 1 -12.903226,0 6.4516129,6.4516129 0 1 1 12.903226,0 z"/>
    <path transform="translate(185.01599,-275.49458)" sodipodi:type="arc" style="fill:#000000;fill-opacity:1;stroke:none" id="path7147-33-7" sodipodi:cx="33.333332" sodipodi:cy="494.29767" sodipodi:rx="6.4516129" sodipodi:ry="6.4516129" d="m 39.784945,494.29767 a 6.4516129,6.4516129 0 1 1 -12.903226,0 6.4516129,6.4516129 0 1 1 12.903226,0 z"/>
    <path transform="translate(274.07408,-249.89026)" sodipodi:type="arc" style="fill:#000000;fill-opacity:1;stroke:none" id="path7147-33-6" sodipodi:cx="33.333332" sodipodi:cy="494.29767" sodipodi:rx="6.4516129" sodipodi:ry="6.4516129" d="m 39.784945,494.29767 a 6.4516129,6.4516129 0 1 1 -12.903226,0 6.4516129,6.4516129 0 1 1 12.903226,0 z"/>
    <path transform="translate(268.87224,-361.72962)" sodipodi:type="arc" style="fill:#000000;fill-opacity:1;stroke:none" id="path7147-33-2" sodipodi:cx="33.333332" sodipodi:cy="494.29767" sodipodi:rx="6.4516129" sodipodi:ry="6.4516129" d="m 39.784945,494.29767 a 6.4516129,6.4516129 0 1 1 -12.903226,0 6.4516129,6.4516129 0 1 1 12.903226,0 z"/>
    <path transform="translate(320.37037,-361.00137)" sodipodi:type="arc" style="fill:#000000;fill-opacity:1;stroke:none" id="path7147-33-13" sodipodi:cx="33.333332" sodipodi:cy="494.29767" sodipodi:rx="6.4516129" sodipodi:ry="6.4516129" d="m 39.784945,494.29767 a 6.4516129,6.4516129 0 1 1 -12.903226,0 6.4516129,6.4516129 0 1 1 12.903226,0 z"/>
    <path transform="translate(333.67298,-269.25194)" sodipodi:type="arc" style="fill:#000000;fill-opacity:1;stroke:none" id="path7147-33-4" sodipodi:cx="33.333332" sodipodi:cy="494.29767" sodipodi:rx="6.4516129" sodipodi:ry="6.4516129" d="m 39.784945,494.29767 a 6.4516129,6.4516129 0 1 1 -12.903226,0 6.4516129,6.4516129 0 1 1 12.903226,0 z"/>
    <path transform="translate(327.56005,-123.55175)" sodipodi:type="arc" style="fill:#000000;fill-opacity:1;stroke:none" id="path7147-33-70" sodipodi:cx="33.333332" sodipodi:cy="494.29767" sodipodi:rx="6.4516129" sodipodi:ry="6.4516129" d="m 39.784945,494.29767 a 6.4516129,6.4516129 0 1 1 -12.903226,0 6.4516129,6.4516129 0 1 1 12.903226,0 z"/>
    <path transform="translate(277.01856,-122.96267)" sodipodi:type="arc" style="fill:#000000;fill-opacity:1;stroke:none" id="path7147-33-77" sodipodi:cx="33.333332" sodipodi:cy="494.29767" sodipodi:rx="6.4516129" sodipodi:ry="6.4516129" d="m 39.784945,494.29767 a 6.4516129,6.4516129 0 1 1 -12.903226,0 6.4516129,6.4516129 0 1 1 12.903226,0 z"/>
    <path transform="translate(173.92593,-122.11248)" sodipodi:type="arc" style="fill:#000000;fill-opacity:1;stroke:none" id="path7147-33-00" sodipodi:cx="33.333332" sodipodi:cy="494.29767" sodipodi:rx="6.4516129" sodipodi:ry="6.4516129" d="m 39.784945,494.29767 a 6.4516129,6.4516129 0 1 1 -12.903226,0 6.4516129,6.4516129 0 1 1 12.903226,0 z"/>
    <path transform="translate(118.66667,-123.03841)" sodipodi:type="arc" style="fill:#000000;fill-opacity:1;stroke:none" id="path7147-33-66" sodipodi:cx="33.333332" sodipodi:cy="494.29767" sodipodi:rx="6.4516129" sodipodi:ry="6.4516129" d="m 39.784945,494.29767 a 6.4516129,6.4516129 0 1 1 -12.903226,0 6.4516129,6.4516129 0 1 1 12.903226,0 z"/>
    <path transform="translate(113.80521,-247.56573)" sodipodi:type="arc" style="fill:#000000;fill-opacity:1;stroke:none" id="path7147-33-5" sodipodi:cx="33.333332" sodipodi:cy="494.29767" sodipodi:rx="6.4516129" sodipodi:ry="6.4516129" d="m 39.784945,494.29767 a 6.4516129,6.4516129 0 1 1 -12.903226,0 6.4516129,6.4516129 0 1 1 12.903226,0 z"/>
    <path transform="translate(175.6712,-237.59531)" sodipodi:type="arc" style="fill:#000000;fill-opacity:1;stroke:none" id="path7147-33-11" sodipodi:cx="33.333332" sodipodi:cy="494.29767" sodipodi:rx="6.4516129" sodipodi:ry="6.4516129" d="m 39.784945,494.29767 a 6.4516129,6.4516129 0 1 1 -12.903226,0 6.4516129,6.4516129 0 1 1 12.903226,0 z"/>
    <path transform="translate(239.31216,-185.54877)" sodipodi:type="arc" style="fill:#000000;fill-opacity:1;stroke:none" id="path7147-33-0-4" sodipodi:cx="33.333332" sodipodi:cy="494.29767" sodipodi:rx="6.4516129" sodipodi:ry="6.4516129" d="m 39.784945,494.29767 a 6.4516129,6.4516129 0 1 1 -12.903226,0 6.4516129,6.4516129 0 1 1 12.903226,0 z"/>
    <path transform="translate(188.66667,-352.29767)" sodipodi:type="arc" style="fill:#000000;fill-opacity:1;stroke:none" id="path7147-33-0-0" sodipodi:cx="33.333332" sodipodi:cy="494.29767" sodipodi:rx="6.4516129" sodipodi:ry="6.4516129" d="m 39.784945,494.29767 a 6.4516129,6.4516129 0 1 1 -12.903226,0 6.4516129,6.4516129 0 1 1 12.903226,0 z"/>
  </g>
  <g inkscape:groupmode="layer" id="layer2" inkscape:label="Calque#1" style="display:none">
    <path sodipodi:type="arc" style="fill:none;stroke:#000000;stroke-width:8.86699486;stroke-miterlimit:4;stroke-opacity:0.66393439;stroke-dasharray:none" id="path7909" sodipodi:cx="344.82758" sodipodi:cy="579.94836" sodipodi:rx="248.27586" sodipodi:ry="248.27586" d="m 593.10344,579.94836 a 248.27586,248.27586 0 1 1 -496.551728,0 248.27586,248.27586 0 1 1 496.551728,0 z" transform="matrix(0.90222222,0,0,0.90222222,-55.111101,-267.2423)"/>
    <path sodipodi:type="arc" style="fill:none;stroke:#000000;stroke-width:20.26741791;stroke-miterlimit:4;stroke-opacity:1;stroke-dasharray:none;display:inline" id="path7909-38" sodipodi:cx="344.82758" sodipodi:cy="579.94836" sodipodi:rx="248.27586" sodipodi:ry="248.27586" d="m 593.10344,579.94836 a 248.27586,248.27586 0 1 1 -496.551728,0 248.27586,248.27586 0 1 1 496.551728,0 z" transform="matrix(0.78944444,0,0,0.78944444,-16.222212,-201.83701)"/>
  </g>
  <g inkscape:groupmode="layer" id="layer3" inkscape:label="Calque#2" style="display:none">
    <path sodipodi:type="arc" style="fill:none;stroke:#000000;stroke-width:4.00444937;stroke-miterlimit:4;stroke-opacity:0.30737706;stroke-dasharray:none" id="path7909-3" sodipodi:cx="344.82758" sodipodi:cy="579.94836" sodipodi:rx="248.27586" sodipodi:ry="248.27586" d="m 593.10344,579.94836 a 248.27586,248.27586 0 1 1 -496.551728,0 248.27586,248.27586 0 1 1 496.551728,0 z" transform="matrix(0.99888888,0,0,0.99888888,-88.444431,-323.30397)"/>
  </g>
  <g inkscape:groupmode="layer" id="layer6" inkscape:label="bars" style="display:inline">
    <path sodipodi:type="arc" style="color:#000000;fill:none;stroke:#000000;stroke-width:6.25369453;stroke-linecap:round;stroke-linejoin:round;stroke-miterlimit:4;stroke-opacity:1;stroke-dasharray:none;stroke-dashoffset:0;marker:none;visibility:visible;display:inline;overflow:visible;enable-background:accumulate" id="path4272" sodipodi:cx="383" sodipodi:cy="143" sodipodi:rx="74" sodipodi:ry="74" d="M 455.15923,159.40259 A 74,74 0 1 1 379.97873,69.061702" transform="matrix(-1.6028531,0.10548771,-0.12354081,-1.5871352,994.46203,346.1992)" sodipodi:start="0.22351298" sodipodi:end="4.6715497" sodipodi:open="true"/>
    <path sodipodi:type="arc" style="color:#000000;fill:none;stroke:#000000;stroke-width:3.79349828;stroke-linecap:round;stroke-linejoin:round;stroke-miterlimit:4;stroke-opacity:1;stroke-dasharray:none;marker:none;visibility:visible;display:inline;overflow:visible;enable-background:accumulate" id="path4272-9" sodipodi:cx="383" sodipodi:cy="143" sodipodi:rx="74" sodipodi:ry="74" d="M 456.82529,137.91806 A 74,74 0 1 1 380.87854,69.030416" transform="matrix(-1.3186617,0.11557685,-0.13082698,-1.3059613,885.99012,300.99832)" sodipodi:start="6.2144564" sodipodi:end="10.966902" sodipodi:open="true"/>
    <path sodipodi:type="arc" style="color:#000000;fill:none;stroke:#000000;stroke-width:2.32770205;stroke-linecap:round;stroke-linejoin:round;stroke-miterlimit:4;stroke-opacity:1;stroke-dasharray:none;marker:none;visibility:visible;display:inline;overflow:visible;enable-background:accumulate" id="path4272-6" sodipodi:cx="383" sodipodi:cy="143" sodipodi:rx="74" sodipodi:ry="74" d="M 443.0553,99.763897 A 74,74 0 1 1 363.99855,71.481158" transform="matrix(-1.0769684,-0.08808502,0.07765988,-1.0647291,763.23451,344.61675)" sodipodi:start="5.659203" sodipodi:end="10.735889" sodipodi:open="true"/>
    <path transform="translate(335.28774,-373.48445)" sodipodi:type="arc" style="fill:#000000;fill-opacity:1;stroke:none;display:inline" id="path7147-33-4-9" sodipodi:cx="33.333332" sodipodi:cy="494.29767" sodipodi:rx="6.4516129" sodipodi:ry="6.4516129" d="m 39.784945,494.29767 a 6.4516129,6.4516129 0 1 1 -12.903226,0 6.4516129,6.4516129 0 1 1 12.903226,0 z"/>
    <path transform="translate(354.03034,-385.97951)" sodipodi:type="arc" style="fill:#000000;fill-opacity:1;stroke:none;display:inline" id="path7147-33-4-95" sodipodi:cx="33.333332" sodipodi:cy="494.29767" sodipodi:rx="6.4516129" sodipodi:ry="6.4516129" d="m 39.784945,494.29767 a 6.4516129,6.4516129 0 1 1 -12.903226,0 6.4516129,6.4516129 0 1 1 12.903226,0 z"/>
    <path transform="translate(368.79723,-370.07671)" sodipodi:type="arc" style="fill:#000000;fill-opacity:1;stroke:none;display:inline" id="path7147-33-4-99" sodipodi:cx="33.333332" sodipodi:cy="494.29767" sodipodi:rx="6.4516129" sodipodi:ry="6.4516129" d="m 39.784945,494.29767 a 6.4516129,6.4516129 0 1 1 -12.903226,0 6.4516129,6.4516129 0 1 1 12.903226,0 z"/>
    <path transform="translate(339.16305,-328.01342)" sodipodi:type="arc" style="fill:#000000;fill-opacity:1;stroke:none;display:inline" id="path7147-33-4-5" sodipodi:cx="33.333332" sodipodi:cy="494.29767" sodipodi:rx="6.4516129" sodipodi:ry="6.4516129" d="m 39.784945,494.29767 a 6.4516129,6.4516129 0 1 1 -12.903226,0 6.4516129,6.4516129 0 1 1 12.903226,0 z"/>
    <path transform="translate(369.93314,-328.11383)" sodipodi:type="arc" style="fill:#000000;fill-opacity:1;stroke:none;display:inline" id="path7147-33-4-3" sodipodi:cx="33.333332" sodipodi:cy="494.29767" sodipodi:rx="6.4516129" sodipodi:ry="6.4516129" d="m 39.784945,494.29767 a 6.4516129,6.4516129 0 1 1 -12.903226,0 6.4516129,6.4516129 0 1 1 12.903226,0 z"/>
    <path style="color:#000000;fill:none;stroke:#000000;stroke-width:3.5;stroke-linecap:butt;stroke-linejoin:miter;stroke-miterlimit:4;stroke-opacity:1;stroke-dasharray:none;stroke-dashoffset:0;marker:none;visibility:visible;display:inline;overflow:visible;enable-background:accumulate" d="m 368.62108,120.81322 19.31055,-13.63097 15.9028,18.17463 -30.66969,40.89292 30.38571,0" id="path4351" inkscape:connector-curvature="0" sodipodi:nodetypes="ccccc"/>
  </g>
  <path style="color:#000000;fill:none;stroke:#000000;stroke-width:3.5;stroke-linecap:butt;stroke-linejoin:miter;stroke-miterlimit:4;stroke-opacity:1;stroke-dasharray:none;stroke-dashoffset:0;marker:none;visibility:visible;display:inline;overflow:visible;enable-background:accumulate" d="m 158.35977,130.09024 64.37887,11.38581 83.08304,103.00511 -32.68193,64.76317 -51.10822,-167.06118 -1.59029,76.81976" id="path3194" inkscape:connector-curvature="0" sodipodi:nodetypes="cccccc"/>
</svg>